<svg width="602" height="27" viewBox="0 0 602 27" fill="none" xmlns="http://www.w3.org/2000/svg">
<path d="M131.285 7.50704L136.059 0L155.155 20.6444L152.768 26.2746L137.014 7.50704L121.737 26.7438H77.3389L93.5704 7.50704H131.285Z" fill="#0E1015"/>
<path d="M53.9461 7.50704L58.7201 0L77.816 20.6444L75.429 26.2746L59.6749 7.50704L44.3981 26.7438H0L16.2316 7.50704H53.9461Z" fill="#0E1015"/>
<path d="M205.759 7.50704L210.533 0L229.629 20.6444L227.242 26.2746L211.487 7.50704L196.211 26.7438H151.812L168.044 7.50704H205.759Z" fill="#0E1015"/>
<path d="M280.233 7.50704L285.007 0L304.103 20.6444L301.716 26.2746L285.962 7.50704L270.685 26.7438H226.287L242.519 7.50704H280.233Z" fill="#0E1015"/>
<path d="M354.708 7.50704L359.482 0L378.578 20.6444L376.191 26.2746L360.437 7.50704L345.16 26.7438H300.762L316.993 7.50704H354.708Z" fill="#0E1015"/>
<path d="M429.181 7.50704L433.955 0L453.051 20.6444L450.664 26.2746L434.91 7.50704L419.633 26.7438H375.235L391.467 7.50704H429.181Z" fill="#0E1015"/>
<path d="M503.656 7.50704L508.43 0L527.526 20.6444L525.139 26.2746L509.385 7.50704L494.108 26.7438H449.71L465.942 7.50704H503.656Z" fill="#0E1015"/>
<path d="M578.13 7.50704L582.904 0L602 20.6444L599.613 26.2746L583.858 7.50704L568.582 26.7438H524.184L540.415 7.50704H578.13Z" fill="#0E1015"/>
</svg>
